<svg height="512" width="512" xmlns="http://www.w3.org/2000/svg"><path d="M229.56 160h-75.12l-1.6 16h78.32zm-54.38 320h33.64a8 8 0 007.989-7.58L231.568 192h-79.136l14.759 280.42a8 8 0 007.989 7.58zM184 208h16v16h-16zm-8 32h32v16h-32zm43.224-183.363a27.36 27.36 0 00-54.448 0L156.04 144h71.92zm73.552 398.726a27.36 27.36 0 0054.448 0L355.96 368h-71.92zM357.56 352l1.6-16h-78.32l1.6 16zM329.3 136H312v16h10.915A181.932 181.932 0 00312 214.818V320h16V214.818A165.113 165.113 0 01340.06 152H360v-16h-13.815a126.126 126.126 0 003.822-16H376v-16h-24.22c.141-2.64.22-5.305.22-8 0-2.745-.058-5.4-.154-8H376V72h-25.371a176.268 176.268 0 00-2.6-16H360V40h-16.24c-4.3-13.073-8.745-19.9-9.1-20.438l-13.312 8.876A66.1 66.1 0 01326.819 40H312v16h19.662a157.167 157.167 0 012.86 16H296v16h39.843q.151 3.874.157 8c0 2.7-.088 5.366-.247 8H296v16h37.738a107.6 107.6 0 01-4.438 16z"/></svg>