<svg height="512" width="512" xmlns="http://www.w3.org/2000/svg"><path d="M264 200h31.548l-1.641-16H264z" fill="#fff"/><circle cx="192" cy="424" r="24"/><path d="M264 232h34.83l-1.641-16H264zm0-64h28.266l-1.641-16H264zm0-32h24.984l-1.641-16H264zm24.35 128h13.762l-1.641-16h-35a24.392 24.392 0 0022.879 16zM264 40v32h18.42l-2.021-19.701zm0 64h21.702l-1.641-16H264zm-72 264a56 56 0 1056 56 56.063 56.063 0 00-56-56zm0 96a40 40 0 1140-40 40.045 40.045 0 01-40 40z" fill="#fff"/><path d="M268.748 373.431a71.231 71.231 0 0142.445-20.9L303.753 280h-15.4A40.4 40.4 0 01248 239.65V40l-16.4 12.3L204.145 320H232a32.036 32.036 0 0132 32v26.74q2.231-2.746 4.748-5.309zM248 312v-16h16v16zm126.937 138.251a8 8 0 01-1.917-8.231 56 56 0 00-51.744-74c-.431-.01-.864-.015-1.294-.015a56 56 0 00-55.946 58.048 55.992 55.992 0 0091.9 40.892 8 8 0 0110.794.475l2.928 2.928a8.97 8.97 0 0012.686-12.686zM320 464a40 40 0 1140-40 40.045 40.045 0 01-40 40z" fill="#fff"/><circle cx="320" cy="424" r="24"/><path d="M232 336h-29.5l-1.7 16.558a71.96 71.96 0 0147.2 26.257V352a16.019 16.019 0 00-16-16z" fill="#fff"/></svg>