<svg height="512" width="512" xmlns="http://www.w3.org/2000/svg"><path d="M248 88v8h80v-8a8.009 8.009 0 00-8-8h-64a8.009 8.009 0 00-8 8zm-24 24h128v16H224zm0 144h111.16l-7.12-71.2A8 8 0 01336 176h16v-32H224zm56-96h16v16h-16zm-16 32h48v16h-48zm-88 80h272v16H176zM104 96h32v72h-32z"/><path d="M351.24 256h81.52l6.4-64h-94.32zM456 408h-96v-16h56v-1.547a16.041 16.041 0 00-14.936-15.964L333.754 370a58.863 58.863 0 00-45.56 17.118A82.061 82.061 0 00264 445.528V488h56v-40a8 8 0 017.2-7.96l151.714-15.172A24.041 24.041 0 00456 408zM64 184h112v16H64zm114.246 186l-67.31 4.487A16.041 16.041 0 0096 390.453V392h56v16H56a24.041 24.041 0 00-22.918 16.868L184.8 440.04A8 8 0 01192 448v40h56v-42.472a82.06 82.06 0 00-24.193-58.407A58.861 58.861 0 00178.246 370z"/><path d="M334.818 354.037l67.311 4.487A32.082 32.082 0 01432 390.453V392h16v-88H176v50.116l1.182-.079a74.9 74.9 0 0157.938 21.769 98.523 98.523 0 0120.88 30.7 98.5 98.5 0 0120.879-30.7 74.858 74.858 0 0157.939-21.769zM80 390.453a32.082 32.082 0 0129.871-31.929L160 355.183V264a8 8 0 018-8h8v-40H64v176h16zM112 232h16v16h-16zm-16 32h48v16H96zM296 64V32h20.687l13.656 13.657 11.314-11.314-16-16A8 8 0 00320 16h-56v16h16v32z"/></svg>